<svg xmlns="http://www.w3.org/2000/svg" version="1.1" xmlns:xlink="http://www.w3.org/1999/xlink" xmlns:svgjs="http://svgjs.dev/svgjs" width="1000" height="1125" viewBox="0 0 1000 1125"><g transform="matrix(1,0,0,1,1.7053025658242404e-13,0)"><svg viewBox="0 0 320 360" data-background-color="#ffffff" preserveAspectRatio="xMidYMid meet" height="1125" width="1000" xmlns="http://www.w3.org/2000/svg" xmlns:xlink="http://www.w3.org/1999/xlink"><defs></defs><g id="tight-bounds" transform="matrix(1,0,0,1,0,0)"><svg viewBox="0 0 320 360" height="360" width="320"><g><svg></svg></g><g><svg viewBox="0 0 320 360" height="360" width="320"><g><path d="M20.961 227.22l3.726 4.658-1.863-6.056c-0.466-2.795-3.726 0.466-1.863 1.398M25.153 224.425c1.397 2.329 2.795 4.658 2.795 6.987 0 3.261 2.795 4.658 5.123 5.589-3.261-3.726-5.124-13.974-7.918-12.576M204.017 26.929c7.918 0 15.371-0.932 23.756 0.931 20.495 5.124 37.729 15.371 49.374 29.811l32.606 52.169c1.397 13.042 4.192 27.482 3.726 43.319 3.261 0 2.795-4.658 6.521-5.59-3.726 9.316-5.59 20.961-6.521 34.469-2.329-7.453 0-18.632 0.466-24.687-3.261 5.124-5.124 1.397-5.124-0.932 0.466-3.726-1.397-3.261-2.795-4.658-5.124-4.658-8.384-9.782-12.11-17.7 2.329-6.055 2.795-14.905-4.658-19.563-2.329-1.397-5.124-3.726-6.521-7.453-1.863-5.124-5.124-11.179-4.193-19.097 0.466-2.329-6.987 5.124-11.179 1.863-18.166-12.576-36.332-27.016-58.224-39.127-11.645 0-20.029-4.192-24.221-9.316-3.726-4.658-0.932-10.713 4.658-11.179 3.261 0 6.987-0.932 9.782 0.932 0.466-1.863 2.329-4.192 4.657-4.192M157.904 16.215l0.932 0.466c4.658 0.932 6.987 7.453 12.11 5.124 0 3.261 0.466 6.521-0.466 8.85-1.397 3.726-5.59 3.726-8.85 3.726-31.208-1.863-49.374 11.179-68.471 22.358-5.124 3.261-10.713 5.59-14.906 9.782-20.029 18.632-41.921 35.866-47.045 70.335l-4.192 38.195c-0.466 4.192-5.124 8.384-4.192 13.508l3.26 22.824c-3.261-3.261-5.124 0.932-4.192 2.795 0.466 1.397 2.329 6.055 5.124 1.863 3.726 6.987 7.453 20.495 12.576 26.55 15.837 18.632 36.332 35.4 53.101 52.169 4.192-0.932 7.453-0.932 8.384-3.727 1.397 2.795-1.397 5.59-3.726 6.056 7.453 4.658 15.837 8.85 27.016 9.781 14.44 0.932 27.948 3.261 40.524 6.522 6.521-1.863 13.042-2.795 20.029-3.261 2.329 0 3.726-3.726 6.521-4.658l0.466-4.658c2.795 4.192 2.329-1.397 0.466-4.192 3.261 2.795 4.192 5.124 5.589 6.987 0-1.397 3.726-6.521 3.727-0.466l0.931-6.055c1.397-0.932 1.863 5.124 3.261 0.931 1.397-4.192 4.192-0.932 6.987-2.329-0.932 1.863-0.466 5.59 2.794 3.261l3.727-3.261c2.329 5.59 6.055 3.261 7.918 2.329 20.495-13.042 40.99-28.413 60.553-43.784l-0.466 6.055 2.329-7.453c2.329 2.329 4.192 0.466 5.124-0.931 2.795-4.658 6.521-9.316 12.577-13.508-7.453 20.029-16.303 35.866-27.482 48.908l-4.658 5.59c0 3.261-0.932 7.453-4.658 7.918-1.863 0.466-5.59-0.932-8.384 1.863-1.397 1.863 3.261 5.59-0.466 2.795-3.261-2.329-6.521 0-10.248 0.932-2.795 0.932 1.863 3.726 2.795 5.589 0.932 1.863 1.863 3.726 1.398 6.056l-5.124-5.59c-6.055 3.261-9.782 9.316-14.906 13.974-2.329 1.863-1.397 5.124-1.397 7.918-3.261 0-6.987-0.932-8.85 0.932-1.397 1.863-0.932 4.658-0.932 7.453-4.658-0.466-5.124-7.453-9.315-6.056-4.192 0.932-8.85 1.397-12.577 3.727 2.795 5.59-4.658 2.329-3.726 3.26-6.987-4.192-13.042-7.453-20.495-4.658-15.837-5.124-35.4-2.795-49.84-0.931 0-2.329 0.466-4.658-0.466-5.124-0.932 2.329-3.726 1.397-3.26 1.397-8.85-6.055-17.7-9.782-27.016-14.905-8.384 0.932-16.303-3.261-18.632-5.59-6.521-6.055-13.974-2.795-20.029-4.192-13.042-3.261-17.7-16.769-19.098-26.084-0.932-4.658-4.658-6.521-6.055-6.056-6.055-19.563-15.371-37.263-22.824-55.429-1.863-4.658-1.397-9.316-1.397-14.44 2.329 0.932 4.658 0.466 4.192-2.794-2.329-15.371-7.918-27.016-13.974-38.195 3.261-15.837 3.726-34.469 11.179-48.443 6.521-12.576 18.632-19.098 27.016-29.811 2.795-3.726 2.795-8.85 5.59-12.11 9.316-9.316 18.632-19.098 28.879-27.482 4.658-3.726 10.247 0 17.234-1.397 2.329-8.384 11.645-15.837 20.495-13.508 3.726 0.932 11.179-8.85 13.508-9.782 3.726-1.397 1.863 3.726 1.863 6.987 8.85-6.987 20.961-10.713 32.14-14.906" fill="#1c4b82" data-fill-palette-color="tertiary"></path></g><g transform="matrix(1,0,0,1,68.19596097718204,90)"><svg viewBox="0 0 183.60807804563592 180" height="180" width="183.60807804563592"><g><svg viewBox="0 0 183.60807804563592 180" height="180" width="183.60807804563592"><g><svg viewBox="0 0 225.6880918876385 221.25310047457629" height="180" width="183.60807804563592"><g transform="matrix(1,0,0,1,16.844045943819253,164.66552985310736)"><svg viewBox="0 0 192 56.58757062146893" height="56.58757062146893" width="192"><g><svg viewBox="0 0 192 56.58757062146893" height="56.58757062146893" width="192"><g><svg viewBox="0 0 192 56.58757062146893" height="56.58757062146893" width="192"><g transform="matrix(1,0,0,1,0,0)"><svg width="192" viewBox="-4.900000095367432 -36.95000076293945 159.2899932861328 46.95000076293945" height="56.58757062146893" data-palette-color="#0074d9"><path d="M30.3-34.6Q31.9-34.6 33.43-33.93 34.95-33.25 35.93-32.08 36.9-30.9 36.9-29.55L36.9-29.55Q36.9-26.6 32.9-26.6L32.9-26.6Q31.75-26.6 31.13-26.78 30.5-26.95 29.65-27.35L29.65-27.35Q29.5-27 29.5-26.35L29.5-26.35Q29.5-25.55 29.78-24.45 30.05-23.35 30.45-22.4L30.45-22.4Q31.5-20.85 31.5-18.7L31.5-18.7Q31.5-17.75 31.25-16.4L31.25-16.4Q30.65-13.8 28.63-11.65 26.6-9.5 23.43-8.28 20.25-7.05 16.45-7.05L16.45-7.05Q13.55-7.05 11-7.45L11-7.45Q10.25-6.8 10.25-5.85L10.25-5.85Q10.25-5.2 10.85-4.78 11.45-4.35 12.85-4.35L12.85-4.35 20.35-4.35Q24.2-4.35 26.35-3.03 28.5-1.7 28.5 0.75L28.5 0.75Q28.5 1.65 28.2 2.6L28.2 2.6Q27.6 4.55 25.48 6.23 23.35 7.9 19.5 8.95 15.65 10 10.15 10L10.15 10Q5.25 10 1.85 9.15-1.55 8.3-3.23 6.83-4.9 5.35-4.9 3.55L-4.9 3.55Q-4.9 3.15-4.7 2.35L-4.7 2.35Q-4.25 0.9-2.68-0.03-1.1-0.95 2.5-1.25L2.5-1.25Q1.3-2.4 1.3-4L1.3-4Q1.3-4.55 1.45-5.15L1.45-5.15Q2.25-7.75 6.15-9L6.15-9Q2.4-11.05 2.4-15L2.4-15Q2.4-16.1 2.7-17.3L2.7-17.3Q3.3-19.9 5.35-22.03 7.4-24.15 10.6-25.4 13.8-26.65 17.6-26.65L17.6-26.65Q23.55-26.65 26.95-25.1L26.95-25.1Q26.2-26.25 25.78-27.58 25.35-28.9 25.35-30L25.35-30Q25.35-31.9 26.58-33.25 27.8-34.6 30.3-34.6L30.3-34.6ZM19.45-16.85Q20.25-19.4 20.25-20.75L20.25-20.75Q20.25-22.45 18.8-22.45L18.8-22.45Q17.55-22.45 16.63-21.23 15.7-20 14.75-16.85L14.75-16.85Q13.95-14.25 13.95-12.9L13.95-12.9Q13.95-11.25 15.35-11.25L15.35-11.25Q16.6-11.25 17.55-12.5 18.5-13.75 19.45-16.85L19.45-16.85ZM14.3 0.7L9.5 0.7Q8.1 0.7 6.95 0.55L6.95 0.55Q6.35 1.3 6.35 2.55L6.35 2.55Q6.4 3.8 7.38 4.35 8.35 4.9 10.4 4.9L10.4 4.9Q12.9 4.9 14.48 4.15 16.05 3.4 16.05 2L16.05 2Q16.05 1.4 15.6 1.05 15.15 0.7 14.3 0.7L14.3 0.7ZM48.7-26.7Q55.05-26.7 57.9-24.68 60.75-22.65 60.75-19.5L60.75-19.5Q60.75-18.55 60.55-17.75L60.55-17.75Q59.8-14.45 56.37-13.03 52.95-11.6 48.3-11.6L48.3-11.6Q45.95-11.6 43.9-11.9L43.9-11.9Q43.85-9.3 45.3-8.25 46.75-7.2 49.35-7.2L49.35-7.2Q50.55-7.2 51.65-7.48 52.75-7.75 54.45-8.3L54.45-8.3Q55.85-8.8 56.35-8.8L56.35-8.8Q56.9-8.8 56.9-8.15L56.9-8.15Q56.95-6.4 55.6-4.48 54.25-2.55 51.6-1.2 48.95 0.15 45.2 0.15L45.2 0.15Q39.65 0.15 36.1-2.65 32.55-5.45 32.55-10.8L32.55-10.8Q32.55-12.3 32.95-14.3L32.95-14.3Q34.2-20.45 38.42-23.58 42.65-26.7 48.7-26.7L48.7-26.7ZM44.25-14.9Q44.45-14.85 44.8-14.85L44.8-14.85Q46.9-14.85 48-16.8 49.1-18.75 49.05-21.15L49.05-21.15Q49-22.55 48.25-22.55L48.25-22.55Q47.7-22.55 46.95-21.68 46.2-20.8 45.47-19.05 44.75-17.3 44.25-14.9L44.25-14.9ZM77.9-26.7Q80.95-26.7 83.25-25.83 85.55-24.95 86.82-23.43 88.09-21.9 88.09-20.05L88.09-20.05Q88.09-18.05 86.72-16.75 85.34-15.45 83-15.45L83-15.45Q80.59-15.45 79.25-16.68 77.9-17.9 77.9-20L77.9-20Q77.9-21 78.2-22.1L78.2-22.1Q76.09-21.55 74.47-19.93 72.84-18.3 72.3-15.65L72.3-15.65Q72-14.15 72-12.95L72-12.95Q72-10.25 73.5-8.85 75-7.45 77.8-7.45L77.8-7.45Q79.4-7.45 80.55-7.78 81.7-8.1 82.9-8.65L82.9-8.65Q83.9-9.15 84.34-9.15L84.34-9.15Q84.65-9.15 84.75-9.03 84.84-8.9 84.84-8.5L84.84-8.5Q84.9-6.65 83.32-4.63 81.75-2.6 78.97-1.23 76.2 0.15 72.75 0.15L72.75 0.15Q69.15 0.15 66.37-1.18 63.6-2.5 62.07-4.98 60.55-7.45 60.55-10.75L60.55-10.75Q60.55-12.3 60.95-14.2L60.95-14.2Q62.3-20.4 66.92-23.55 71.55-26.7 77.9-26.7L77.9-26.7ZM116.49-26.45Q119.34-26.45 121.07-24.88 122.79-23.3 122.79-21.05L122.79-21.05Q122.79-18.65 121.34-17.3 119.89-15.95 117.54-15.95L117.54-15.95Q115.44-15.95 114.29-17.03 113.14-18.1 113.19-19.45L113.19-19.45Q112.69-19.55 112.34-19.05 111.99-18.55 111.59-17.1L111.59-17.1Q111.34-16.15 110.64-15.35L110.64-15.35Q114.04-15.1 115.69-13.8 117.34-12.5 117.34-10.45L117.34-10.45Q117.34-9.45 116.99-8.45L116.99-8.45 116.59-6.9Q116.49-6.65 116.49-6.25L116.49-6.25Q116.49-5.55 117.14-5.55L117.14-5.55Q117.74-5.55 118.17-6.08 118.59-6.6 118.74-6.6L118.74-6.6Q118.99-6.6 119.14-6.28 119.29-5.95 119.29-5.5L119.29-5.5Q119.34-4.05 118.42-2.68 117.49-1.3 115.62-0.43 113.74 0.45 111.09 0.45L111.09 0.45Q107.89 0.45 105.77-1.15 103.64-2.75 103.64-5.35L103.64-5.35Q103.64-6.3 104.04-7.5L104.04-7.5 104.99-10Q105.24-10.9 105.24-11.3L105.24-11.3Q105.24-11.95 104.82-12.25 104.39-12.55 103.49-12.55L103.49-12.55 102.49-12.55 100.24-5.2Q100.09-4.6 100.09-4.15L100.09-4.15Q100.09-3.5 100.34-3.13 100.59-2.75 101.04-2.4L101.04-2.4Q101.39-2.05 101.54-1.83 101.69-1.6 101.59-1.25L101.59-1.25Q101.34-0.6 100.59-0.3 99.84 0 98.29 0L98.29 0 86.89 0Q85.59 0 84.99-0.43 84.39-0.85 84.59-1.55L84.59-1.55Q84.79-2.15 85.64-2.6L85.64-2.6Q86.39-3 86.89-3.55 87.39-4.1 87.74-5.3L87.74-5.3 95.34-30.25Q95.49-30.7 95.49-31L95.49-31Q95.49-31.55 95.22-31.9 94.94-32.25 94.49-32.6L94.49-32.6Q93.99-33 93.77-33.3 93.54-33.6 93.69-34.1L93.69-34.1Q93.99-35.25 96.84-36.1 99.69-36.95 102.79-36.95L102.79-36.95Q105.69-36.95 107.04-35.88 108.39-34.8 108.39-32.9L108.39-32.9Q108.39-31.75 108.04-30.7L108.04-30.7 103.69-16.5 105.34-16.5Q106.34-16.5 106.97-17.1 107.59-17.7 107.94-18.85L107.94-18.85Q109.19-22.55 111.19-24.5 113.19-26.45 116.49-26.45L116.49-26.45ZM141.14-26.45Q147.94-26.45 151.17-23.7 154.39-20.95 154.39-16.5L154.39-16.5Q154.39-15 153.99-13.15L153.99-13.15Q153.04-9.05 150.44-5.98 147.84-2.9 144.06-1.23 140.29 0.45 135.89 0.45L135.89 0.45Q128.94 0.45 125.62-2.33 122.29-5.1 122.29-9.7L122.29-9.7Q122.29-11.25 122.69-13.15L122.69-13.15Q123.64-17.05 126.32-20.08 128.99-23.1 132.87-24.78 136.74-26.45 141.14-26.45L141.14-26.45ZM140.99-22Q139.94-22 138.77-20.13 137.59-18.25 135.99-13.05L135.99-13.05Q134.39-7.85 134.39-5.75L134.39-5.75Q134.39-4.65 134.74-4.28 135.09-3.9 135.69-3.9L135.69-3.9Q136.74-3.8 137.87-5.7 138.99-7.6 140.69-13.1L140.69-13.1Q142.24-17.95 142.24-20.15L142.24-20.15Q142.24-21.2 141.92-21.6 141.59-22 140.99-22L140.99-22Z" opacity="1" transform="matrix(1,0,0,1,0,0)" fill="#0074d9" class="undefined-text-0" data-fill-palette-color="primary" id="text-0"></path></svg></g></svg></g></svg></g></svg></g><g><svg viewBox="0 0 225.6880918876385 156.40804519774014" height="156.40804519774014" width="225.6880918876385"><g><svg xmlns="http://www.w3.org/2000/svg" viewBox="14.199997901916504 25.297317504882812 71.71820068359375 49.70268249511719" xml:space="preserve" x="0" y="0" height="156.40804519774014" width="225.6880918876385" class="icon-icon-0" data-fill-palette-color="accent" id="icon-0"><path d="M85.9 55.2c-0.2-5.1-1.6-12.9-12.4-22.3-5.8-5-16.5-7.7-24-7.6-6.7 0-9.6 1.5-9.9 4.8v0.5c-0.1 2-0.3 2.7-1.5 3.1-1.9 0.6-3.3 0.4-4.5-2.2-0.5-1.1-1.4-1.9-2.6-2.2-2.4-0.6-5.6 0.7-9 3.7-3.2 2.7-7.8 10.7-7.8 16.2 0 3.7 2.1 6.2 5.3 6.2h19.8c1.5 4 1.4 4 1 4.5-0.6 0.6-1.5 1.3-2.4 2.2l-1.5 1.3h-3.7c-2 0-3.1 1-3.1 3s1.1 3 3.1 3h2.9l1 0.5 0.4 1.1v0.9c0 2 1 3.1 3 3.1s3-1.1 3-3.1v-1.6c1-1.4 3.5-3.5 5-5.1l1.8-1.9c1.8-1.8 3.5-3.9 1.4-7.9h4c-1.6 4-1.2 8.3-0.1 11.4 1.6 4.5 6.9 8 13.3 8 2 0 4-0.3 6.1-1.1 10.3-3.6 11.6-13.2 11.4-18.5z m-12 16.5c-8.6 3-15.4-1.4-16.9-5.8-1.6-4.4-1.6-11.9 4.7-14.4 5.3-2.2 10.3-0.1 11.8 3.1 1.7 3.5 0.8 7.5-2.2 9.3-1.5 0.9-3.5 1.2-5.1 0.6-1.3-0.4-2.2-1.3-2.6-2.4-0.5-1.4 0-2.7 0.6-3.4 0.7-0.7 1.6-0.9 2.5-0.6 1.3 0.4 1.2 1.5 1.1 1.8-0.1 0.5 0.2 1.1 0.7 1.2 0.5 0.1 1.1-0.2 1.2-0.7 0.3-1 0.1-3.3-2.4-4.1-1.6-0.6-3.3-0.2-4.6 1.1-1.4 1.4-1.8 3.5-1.1 5.4 0.6 1.7 2 3 3.8 3.6 2.2 0.8 4.8 0.5 6.8-0.8 3.9-2.4 5.2-7.4 3-11.9-1.9-4-8-6.7-14.4-4-2.1 0.8-3.5 2.1-4.6 3.6-0.1-0.1-0.3-0.1-0.4-0.1h-5.6c-1-2-2.3-5.5-2.3-5.6-0.2-0.5-0.8-0.8-1.3-0.6-0.5 0.2-0.8 0.8-0.6 1.3 0.1 0.2 2.1 5.2 3.1 7.3 1.7 3.5 0.9 4.3-0.8 6.1l-1.9 1.9c-1.7 1.7-3.9 4-5.3 5.3-0.2 0.2-0.3 0.4-0.3 0.7v2c0 0.9-0.1 1.1-1 1.1s-1-0.2-1-1.1v-1c0-0.1-0.1-0.2-0.2-0.3l-0.6-1.6c-0.1-0.3-0.4-0.5-0.7-0.6l-1.3-0.6c-0.1 0-0.2-0.2-0.3-0.2h-3.1c-0.9 0-1.1-0.1-1.1-1s0.2-1 1.1-1h4.1c0.3 0 0.5 0 0.7-0.2l1.7-1.7 2.4-2.4c1.4-1.4 1.2-2.2-0.8-7.2 0-0.1-0.1-0.2-0.2-0.2 0 0 0-0.1-0.1-0.1-0.1-0.1-0.1-0.1-0.2-0.1l-0.1-0.1H19.3c-3 0-3.3-3.2-3.3-4.2 0-4.8 4.3-12.3 7.1-14.7 2.9-2.4 5.6-3.6 7.3-3.2 0.6 0.1 1 0.5 1.3 1 1.4 3.2 3.7 4.3 6.9 3.3 2.6-0.8 2.8-2.9 2.9-4.8v-0.5c0.1-1 0.2-3 7.9-3h0.1c7.2 0 17.2 2.4 22.5 7.1 10.2 8.9 11.6 16.2 11.7 20.9 0.4 4.9-0.7 13.4-9.8 16.5z" fill="#0074d9" data-fill-palette-color="accent"></path><path d="M27.4 35.7c-2.8 0-5.1 2.3-5.1 5.1s2.3 5.1 5.1 5.1 5.1-2.3 5.1-5.1-2.2-5.1-5.1-5.1z m0 8.2c-1.7 0-3.1-1.4-3.1-3.1 0-1.7 1.4-3.1 3.1-3.1 1.7 0 3.1 1.4 3.1 3.1s-1.4 3.1-3.1 3.1z" fill="#0074d9" data-fill-palette-color="accent"></path></svg></g></svg></g><g></g></svg></g></svg></g></svg></g></svg></g></svg><rect width="320" height="360" fill="none" stroke="none" visibility="hidden"></rect></g></svg></g></svg>